<?xml version="1.0"?>
<svg width="58" height="58" xmlns="http://www.w3.org/2000/svg" xmlns:svg="http://www.w3.org/2000/svg">
 <style type="text/css">.st0{fill:#acf;}</style>
 <g class="layer">
  <rect fill="#E4C05C" height="12" id="svg_1" width="15" x="21" y="14.773074"/>
  <path d="m34,14.773074l-2,0l0,-3.5c0,-1.93 -1.57,-3.5 -3.5,-3.5s-3.5,1.57 -3.5,3.5l0,3.5l-2,0l0,-3.5c0,-3.033 2.468,-5.5 5.5,-5.5s5.5,2.467 5.5,5.5l0,3.5z" fill="#556080" id="svg_2"/>
  <path d="m48,51.208466l-38,0c-5.5,0 -10,-3.81254 -10,-8.472311l0,0c0,-4.659771 4.5,-8.472311 10,-8.472311l38,0c5.5,0 10,3.81254 10,8.472311l0,0c0,4.659771 -4.5,8.472311 -10,8.472311z" fill="#556080" id="svg_3"/>
  <path class="st0" d="m36.024143,41.024854l-1.879051,0.900214l0,-2.384121c0,-0.389129 -0.328999,-0.704944 -0.736017,-0.704944s-0.736017,0.315815 -0.736017,0.704944l0,2.384121l-1.879051,-0.899509c-0.362856,-0.174826 -0.805202,-0.032427 -0.987735,0.31511c-0.181796,0.348242 -0.034593,0.771914 0.328999,0.946035l2.155057,1.032038l-1.678118,2.143735c-0.244358,0.311585 -0.178116,0.753585 0.147203,0.986922c0.132483,0.095167 0.287047,0.140989 0.440874,0.140989c0.224485,0 0.444554,-0.097282 0.589549,-0.281978l1.619237,-2.068306l1.619237,2.068306c0.144259,0.184695 0.365064,0.281978 0.589549,0.281978c0.153828,0 0.308391,-0.045821 0.440874,-0.140989c0.325319,-0.233336 0.391561,-0.675336 0.147203,-0.986922l-1.678854,-2.143735l2.155057,-1.032038c0.363592,-0.174121 0.510796,-0.597793 0.328999,-0.946035c-0.181796,-0.348242 -0.623406,-0.489936 -0.986998,-0.315815z" fill="black" id="svg_6"/>
  <path class="st0" d="m44.856345,41.024854l-1.879051,0.900214l0,-2.384121c0,-0.389129 -0.328999,-0.704944 -0.736017,-0.704944s-0.736017,0.315815 -0.736017,0.704944l0,2.384121l-1.879051,-0.899509c-0.364328,-0.174826 -0.805202,-0.032427 -0.987735,0.31511c-0.181796,0.348242 -0.034593,0.771914 0.328999,0.946035l2.155057,1.032038l-1.678118,2.143735c-0.244358,0.311585 -0.178116,0.753585 0.147203,0.986922c0.132483,0.095167 0.287047,0.140989 0.440874,0.140989c0.224485,0 0.444554,-0.097282 0.589549,-0.281978l1.619237,-2.068306l1.619237,2.068306c0.144259,0.184695 0.365064,0.281978 0.589549,0.281978c0.153828,0 0.308391,-0.045821 0.440874,-0.140989c0.325319,-0.233336 0.391561,-0.675336 0.147203,-0.986922l-1.678854,-2.143735l2.155057,-1.032038c0.363592,-0.174121 0.510796,-0.597793 0.328999,-0.946035c-0.182532,-0.348242 -0.623406,-0.489936 -0.986998,-0.315815z" fill="black" id="svg_7"/>
  <path class="st0" d="m54.676281,41.340669c-0.182532,-0.348242 -0.624142,-0.489936 -0.987735,-0.31511l-1.879051,0.899509l0,-2.384121c0,-0.389129 -0.328999,-0.704944 -0.736017,-0.704944s-0.736017,0.315815 -0.736017,0.704944l0,2.384121l-1.879051,-0.899509c-0.364328,-0.174826 -0.805202,-0.032427 -0.987735,0.31511c-0.181796,0.348242 -0.034593,0.771914 0.328999,0.946035l2.155057,1.032038l-1.678118,2.143735c-0.244358,0.311585 -0.178116,0.753585 0.147203,0.986922c0.132483,0.095167 0.287047,0.140989 0.440874,0.140989c0.224485,0 0.444554,-0.097282 0.589549,-0.281978l1.619237,-2.068306l1.619237,2.068306c0.144259,0.184695 0.365064,0.281978 0.589549,0.281978c0.153828,0 0.308391,-0.045821 0.440874,-0.140989c0.325319,-0.233336 0.391561,-0.675336 0.147203,-0.986922l-1.678854,-2.143735l2.155057,-1.032038c0.363592,-0.174826 0.511532,-0.597793 0.329736,-0.946035z" fill="black" id="svg_8"/>
  <path class="st0" d="m9.541741,41.012214l-1.879051,0.900214l0,-2.384121c0,-0.389129 -0.328999,-0.704944 -0.736017,-0.704944s-0.736017,0.315815 -0.736017,0.704944l0,2.384121l-1.879051,-0.899509c-0.362856,-0.174826 -0.805202,-0.032427 -0.987735,0.31511c-0.181796,0.348242 -0.034593,0.771914 0.328999,0.946035l2.155057,1.032038l-1.678118,2.143735c-0.244358,0.311585 -0.178116,0.753585 0.147203,0.986922c0.132483,0.095167 0.287047,0.140989 0.440874,0.140989c0.224485,0 0.444554,-0.097282 0.589549,-0.281978l1.619237,-2.068306l1.619237,2.068306c0.144259,0.184695 0.365064,0.281978 0.589549,0.281978c0.153828,0 0.308391,-0.045821 0.440874,-0.140989c0.325319,-0.233336 0.391561,-0.675336 0.147203,-0.986922l-1.678854,-2.143735l2.155057,-1.032038c0.363592,-0.174121 0.510796,-0.597793 0.328999,-0.946035c-0.181796,-0.348242 -0.623406,-0.489936 -0.986998,-0.315815z" fill="black" id="svg_26"/>
  <path class="st0" d="m18.373942,41.012214l-1.879051,0.900214l0,-2.384121c0,-0.389129 -0.328999,-0.704944 -0.736017,-0.704944s-0.736017,0.315815 -0.736017,0.704944l0,2.384121l-1.879051,-0.899509c-0.364328,-0.174826 -0.805202,-0.032427 -0.987735,0.31511c-0.181796,0.348242 -0.034593,0.771914 0.328999,0.946035l2.155057,1.032038l-1.678118,2.143735c-0.244358,0.311585 -0.178116,0.753585 0.147203,0.986922c0.132483,0.095167 0.287047,0.140989 0.440874,0.140989c0.224485,0 0.444554,-0.097282 0.589549,-0.281978l1.619237,-2.068306l1.619237,2.068306c0.144259,0.184695 0.365064,0.281978 0.589549,0.281978c0.153828,0 0.308391,-0.045821 0.440874,-0.140989c0.325319,-0.233336 0.391561,-0.675336 0.147203,-0.986922l-1.678854,-2.143735l2.155057,-1.032038c0.363592,-0.174121 0.510796,-0.597793 0.328999,-0.946035c-0.182532,-0.348242 -0.623406,-0.489936 -0.986998,-0.315815z" fill="black" id="svg_27"/>
  <path class="st0" d="m28.193878,41.328029c-0.182532,-0.348242 -0.624142,-0.489936 -0.987735,-0.31511l-1.879051,0.899509l0,-2.384121c0,-0.389129 -0.328999,-0.704944 -0.736017,-0.704944s-0.736017,0.315815 -0.736017,0.704944l0,2.384121l-1.879051,-0.899509c-0.364328,-0.174826 -0.805202,-0.032427 -0.987735,0.31511c-0.181796,0.348242 -0.034593,0.771914 0.328999,0.946035l2.155057,1.032038l-1.678118,2.143735c-0.244358,0.311585 -0.178116,0.753585 0.147203,0.986922c0.132483,0.095167 0.287047,0.140989 0.440874,0.140989c0.224485,0 0.444554,-0.097282 0.589549,-0.281978l1.619237,-2.068306l1.619237,2.068306c0.144259,0.184695 0.365064,0.281978 0.589549,0.281978c0.153828,0 0.308391,-0.045821 0.440874,-0.140989c0.325319,-0.233336 0.391561,-0.675336 0.147203,-0.986922l-1.678854,-2.143735l2.155057,-1.032038c0.363592,-0.174826 0.511532,-0.597793 0.329736,-0.946035z" fill="black" id="svg_28"/>
    </g>
</svg>
