<?xml version="1.0" encoding="utf-8"?>
<!-- Generator: Adobe Illustrator 23.0.6, SVG Export Plug-In . SVG Version: 6.00 Build 0)  -->
<svg version="1.1" id="Layer_1" xmlns="http://www.w3.org/2000/svg" xmlns:xlink="http://www.w3.org/1999/xlink" x="0px" y="0px"
	 viewBox="0 0 60 60" style="enable-background:new 0 0 60 60;" xml:space="preserve">
<style type="text/css">
	.st0{fill:#147;}
</style>
<path class="st0" d="M30,0C13.5,0,0,13.5,0,30s13.5,30,30,30s30-13.5,30-30S46.5,0,30,0z M45.2,23.6L29,39.9
	c-0.5,0.5-1.1,0.7-1.8,0.7s-1.3-0.2-1.8-0.7l-8.1-8.1c-1-1-1-2.6,0-3.5c1-1,2.6-1,3.5,0l6.4,6.4l14.5-14.5c1-1,2.6-1,3.5,0
	C46.2,21.1,46.2,22.7,45.2,23.6z"/>
</svg>
