<?xml version="1.0" encoding="utf-8"?>
<!-- Generator: Adobe Illustrator 23.0.6, SVG Export Plug-In . SVG Version: 6.00 Build 0)  -->
<svg version="1.1" id="Capa_1" xmlns="http://www.w3.org/2000/svg" xmlns:xlink="http://www.w3.org/1999/xlink" x="0px" y="0px"
	 viewBox="0 0 60 60" style="enable-background:new 0 0 60 60;" xml:space="preserve">
<style type="text/css">
	.st0{display:none;fill:#46743C;}
	.st1{fill:#46743C;}
</style>
<path class="st0" d="M30,60c16.5,0,30-13.5,30-30S46.5,0,30,0S0,13.5,0,30S13.5,60,30,60z M14.4,29.2l22-15c0.2-0.1,0.4-0.2,0.6-0.2
	c0.2,0,0.3,0,0.5,0.1c0.3,0.2,0.5,0.5,0.5,0.9v30c0,0.4-0.2,0.7-0.5,0.9s-0.7,0.2-1-0.1l-22-15C14.2,30.6,14,30.3,14,30
	S14.2,29.4,14.4,29.2z"/>
<g>
	<g>
		<path class="st1" d="M30,60c16.6,0,30-13.4,30-30C60,13.4,46.6,0,30,0C13.4,0,0,13.4,0,30C0,46.6,13.4,60,30,60z M13,28.6
			l14.3-8.3c0.3-0.1,0.5-0.2,0.8-0.2c0.3,0,0.6,0.1,0.8,0.2c0.5,0.3,0.8,0.8,0.8,1.4v6.8L44,20.3c0.3-0.1,0.5-0.2,0.8-0.2
			s0.6,0.1,0.8,0.2c0.5,0.3,0.8,0.8,0.8,1.4v16.5c0,0.6-0.3,1.1-0.8,1.4c-0.5,0.3-1.2,0.3-1.7,0l-14.2-8.2v6.8
			c0,0.6-0.3,1.1-0.8,1.4c-0.5,0.3-1.2,0.3-1.7,0L13,31.4c-0.5-0.3-0.8-0.8-0.8-1.4C12.1,29.4,12.4,28.9,13,28.6z"/>
	</g>
</g>
</svg>
