<?xml version="1.0" encoding="utf-8"?>
<!-- Generator: Adobe Illustrator 23.0.6, SVG Export Plug-In . SVG Version: 6.00 Build 0)  -->
<svg version="1.1" id="Capa_1" xmlns="http://www.w3.org/2000/svg" xmlns:xlink="http://www.w3.org/1999/xlink" x="0px" y="0px"
	 viewBox="0 0 438.5 438.5" style="enable-background:new 0 0 438.5 438.5;" xml:space="preserve">
<style type="text/css">
	.st0{fill:#147;}
	.st1{fill:#FFFFFF;}
</style>
<circle class="st0" cx="222.3" cy="222.3" r="218"/>
<g>
	<g>
		<path class="st1" d="M370.4,81c-2.5-2.5-5.6-3.8-9-3.8s-6.5,1.3-9,3.8l-26.2,26c-14.4-13.6-30.9-24.1-49.4-31.6
			C258,68,238.9,64.2,219.3,64.2c-37,0-69.3,11.2-96.9,33.6s-45.7,51.6-54.5,87.7v1.4c0,1.8,0.6,3.3,1.9,4.5
			c1.3,1.3,2.8,1.9,4.5,1.9h40.2c3,0,4.9-1.6,6.1-4.7c5.7-13.4,9.2-21.4,10.7-23.6c9.4-15.3,21.9-27.4,37.5-36.1
			s32.4-13.1,50.5-13.1c27.1,0,50.5,9.2,70.4,27.6l-27.9,27.9c-2.5,2.5-3.8,5.6-3.8,9.1c0,3.5,1.3,6.5,3.8,9
			c2.5,2.5,5.6,3.8,9.1,3.8h90.4c3.5,0,6.5-1.3,9-3.8c2.5-2.5,3.8-5.6,3.8-9V90.1C374.2,86.6,373,83.5,370.4,81z"/>
		<path class="st1" d="M362.8,245.1h-38.7c-3,0-4.9,1.6-6.1,4.7c-5.7,13.4-9.2,21.4-10.7,23.6c-9.4,15.3-21.9,27.4-37.5,36.1
			c-15.6,8.8-32.4,13.1-50.5,13.1c-13.1,0-25.7-2.4-37.8-7.3s-23-11.7-32.5-20.6l27.6-27.6c2.5-2.5,3.8-5.6,3.8-9
			c0-3.5-1.3-6.5-3.8-9c-2.5-2.5-5.6-3.8-9-3.8H77.2c-3.5,0-6.5,1.3-9.1,3.8c-2.5,2.5-3.8,5.6-3.8,9v90.3c0,3.5,1.3,6.5,3.8,9
			c2.5,2.5,5.6,3.8,9.1,3.8c3.5,0,6.5-1.3,9-3.8l26.1-26c14.4,13.7,30.8,24.3,49.1,31.7c18.4,7.4,37.4,11.1,57.1,11.1
			c36.9,0,69-11.2,96.5-33.6c27.4-22.4,45.5-51.6,54.1-87.7c0.1-0.3,0.2-0.7,0.2-1.4c0-1.8-0.6-3.3-1.9-4.5
			C366,245.7,364.5,245.1,362.8,245.1z"/>
	</g>
</g>
</svg>
