<?xml version="1.0" encoding="utf-8"?>
<!-- Generator: Adobe Illustrator 23.0.6, SVG Export Plug-In . SVG Version: 6.00 Build 0)  -->
<svg version="1.1" id="Capa_1" xmlns="http://www.w3.org/2000/svg" xmlns:xlink="http://www.w3.org/1999/xlink" x="0px" y="0px"
	 viewBox="0 0 60 60" style="enable-background:new 0 0 60 60;" xml:space="preserve">
<style type="text/css">
	.st0{display:none;fill:#46743C;}
	.st1{fill:#46743C;}
</style>
<path class="st0" d="M30,0C13.5,0,0,13.5,0,30s13.5,30,30,30s30-13.5,30-30S46.5,0,30,0z M45.6,30.8l-22,15C23.4,45.9,23.2,46,23,46
	s-0.3,0-0.5-0.1C22.2,45.7,22,45.4,22,45V15c0-0.4,0.2-0.7,0.5-0.9s0.7-0.1,1,0.1l22,15c0.3,0.2,0.4,0.5,0.4,0.8
	S45.8,30.6,45.6,30.8z"/>
<g>
	<g>
		<path class="st1" d="M30,0C13.4,0,0,13.4,0,30c0,16.6,13.4,30,30,30c16.6,0,30-13.4,30-30C60,13.4,46.6,0,30,0z M47,31.4
			l-14.3,8.3c-0.3,0.1-0.5,0.2-0.8,0.2c-0.3,0-0.6-0.1-0.8-0.2c-0.5-0.3-0.8-0.8-0.8-1.4v-6.8L16,39.7c-0.3,0.1-0.5,0.2-0.8,0.2
			c-0.3,0-0.6-0.1-0.8-0.2c-0.5-0.3-0.8-0.8-0.8-1.4V21.7c0-0.6,0.3-1.1,0.8-1.4c0.5-0.3,1.2-0.3,1.7,0l14.2,8.2v-6.8
			c0-0.6,0.3-1.1,0.8-1.4c0.5-0.3,1.2-0.3,1.7,0L47,28.6c0.5,0.3,0.8,0.8,0.8,1.4C47.9,30.6,47.6,31.1,47,31.4z"/>
	</g>
</g>
</svg>
