<?xml version="1.0" encoding="utf-8"?>
<!-- Generator: Adobe Illustrator 23.0.6, SVG Export Plug-In . SVG Version: 6.00 Build 0)  -->
<svg version="1.1" id="Capa_1" xmlns="http://www.w3.org/2000/svg" xmlns:xlink="http://www.w3.org/1999/xlink" x="0px" y="0px"
	 viewBox="0 0 60 60" style="enable-background:new 0 0 60 60;" xml:space="preserve">
<style type="text/css">
	.st0{fill:#46743C;}
</style>
<path class="st0" d="M30,0C13.5,0,0,13.5,0,30s13.5,30,30,30s30-13.5,30-30S46.5,0,30,0z M45.6,30.8l-22,15C23.4,45.9,23.2,46,23,46
	c-0.2,0-0.3,0-0.5-0.1C22.2,45.7,22,45.4,22,45V15c0-0.4,0.2-0.7,0.5-0.9c0.3-0.2,0.7-0.1,1,0.1l22,15c0.3,0.2,0.4,0.5,0.4,0.8
	S45.8,30.6,45.6,30.8z"/>
</svg>
