<?xml version="1.0" encoding="utf-8"?>
<!-- Generator: Adobe Illustrator 23.0.6, SVG Export Plug-In . SVG Version: 6.00 Build 0)  -->
<svg version="1.1" id="Capa_1" xmlns="http://www.w3.org/2000/svg" xmlns:xlink="http://www.w3.org/1999/xlink" x="0px" y="0px"
	 viewBox="0 0 60 60" style="enable-background:new 0 0 60 60;" xml:space="preserve">
<style type="text/css">
	.st0{fill:#46743C;}
</style>
<path class="st0" d="M0,30c0,16.5,13.5,30,30,30s30-13.5,30-30S46.5,0,30,0S0,13.5,0,30z M30.8,14.4l15,22c0.1,0.2,0.2,0.4,0.2,0.6
	c0,0.2,0,0.3-0.1,0.5C45.7,37.8,45.4,38,45,38H15c-0.4,0-0.7-0.2-0.9-0.5c-0.2-0.3-0.1-0.7,0.1-1l15-22c0.2-0.3,0.5-0.4,0.8-0.4
	S30.6,14.2,30.8,14.4z"/>
</svg>
