<?xml version="1.0" encoding="utf-8"?>
<!-- Generator: Adobe Illustrator 23.0.6, SVG Export Plug-In . SVG Version: 6.00 Build 0)  -->
<svg version="1.1" id="Capa_1" xmlns="http://www.w3.org/2000/svg" xmlns:xlink="http://www.w3.org/1999/xlink" x="0px" y="0px"
	 viewBox="0 0 60 60" style="enable-background:new 0 0 60 60;" xml:space="preserve">
<style type="text/css">
	.st0{fill:#46743C;}
</style>
<path class="st0" d="M30,60c16.5,0,30-13.5,30-30S46.5,0,30,0S0,13.5,0,30S13.5,60,30,60z M14.4,29.2l22-15c0.2-0.1,0.4-0.2,0.6-0.2
	c0.2,0,0.3,0,0.5,0.1c0.3,0.2,0.5,0.5,0.5,0.9v30c0,0.4-0.2,0.7-0.5,0.9c-0.3,0.2-0.7,0.2-1-0.1l-22-15C14.2,30.6,14,30.3,14,30
	S14.2,29.4,14.4,29.2z"/>
</svg>
