<?xml version="1.0" encoding="utf-8"?>
<!-- Generator: Adobe Illustrator 23.0.6, SVG Export Plug-In . SVG Version: 6.00 Build 0)  -->
<svg version="1.1" id="Capa_1" xmlns="http://www.w3.org/2000/svg" xmlns:xlink="http://www.w3.org/1999/xlink" x="0px" y="0px"
	 viewBox="0 0 60 60" style="enable-background:new 0 0 60 60;" xml:space="preserve">
<style type="text/css">
	.st0{fill:#147;}
</style>
<path class="st0" d="M60,30C60,13.5,46.5,0,30,0S0,13.5,0,30s13.5,30,30,30S60,46.5,60,30z M29.2,45.6l-15-22
	C14.1,23.4,14,23.2,14,23c0-0.2,0-0.3,0.1-0.5c0.2-0.3,0.5-0.5,0.9-0.5h30c0.4,0,0.7,0.2,0.9,0.5c0.2,0.3,0.2,0.7-0.1,1l-15,22
	C30.6,45.8,30.3,46,30,46S29.4,45.8,29.2,45.6z"/>
</svg>
