<?xml version="1.0" encoding="utf-8"?>
<!-- Generator: Adobe Illustrator 23.0.6, SVG Export Plug-In . SVG Version: 6.00 Build 0)  -->
<svg version="1.1" id="Capa_1" xmlns="http://www.w3.org/2000/svg" xmlns:xlink="http://www.w3.org/1999/xlink" x="0px" y="0px"
	 viewBox="0 0 60 60" style="enable-background:new 0 0 60 60;" xml:space="preserve">
<style type="text/css">
	.st0{display:none;fill:#147;}
	.st1{fill:#147;}
</style>
<path class="st0" d="M30,0C13.5,0,0,13.5,0,30s13.5,30,30,30s30-13.5,30-30S46.5,0,30,0z M45.6,30.8l-22,15C23.4,45.9,23.2,46,23,46
	s-0.3,0-0.5-0.1C22.2,45.7,22,45.4,22,45V15c0-0.4,0.2-0.7,0.5-0.9s0.7-0.1,1,0.1l22,15c0.3,0.2,0.4,0.5,0.4,0.8
	S45.8,30.6,45.6,30.8z"/>
<g>
	<g>
		<path class="st1" d="M30,0C13.4,0,0,13.4,0,30c0,16.6,13.4,30,30,30s30-13.4,30-30C60,13.4,46.6,0,30,0z M41.2,31.7l-17.3,10
			c-0.3,0.2-0.6,0.2-0.9,0.2c-0.3,0-0.6-0.1-0.9-0.2c-0.5-0.3-0.9-0.9-0.9-1.5v-20c0-0.6,0.3-1.2,0.9-1.5c0.5-0.3,1.2-0.3,1.7,0
			l17.3,10c0.5,0.3,0.9,0.9,0.9,1.5C42,30.8,41.7,31.3,41.2,31.7z"/>
	</g>
</g>
</svg>
