<?xml version="1.0" encoding="utf-8"?>
<!-- Generator: Adobe Illustrator 23.0.6, SVG Export Plug-In . SVG Version: 6.00 Build 0)  -->
<svg version="1.1" id="Capa_1" xmlns="http://www.w3.org/2000/svg" xmlns:xlink="http://www.w3.org/1999/xlink" x="0px" y="0px"
	 viewBox="0 0 25 25" style="enable-background:new 0 0 25 25;" xml:space="preserve">
<style type="text/css">
	.st0{fill:#46743C;}
	.st1{fill:#46743C;stroke:#FFFFFF;stroke-width:0.75;stroke-miterlimit:10;}
</style>
<g>
	<path class="st0" d="M24.4,10.2l-2.2-0.3c-0.2-0.9-0.6-1.7-1-2.4l1.4-1.8c0.2-0.3,0.2-0.7-0.1-0.9l-2.3-2.3
		c-0.2-0.2-0.7-0.3-0.9-0.1l-1.8,1.4c-0.7-0.4-1.5-0.8-2.4-1l-0.3-2.2c0-0.3-0.4-0.6-0.7-0.6h-3.3c-0.3,0-0.7,0.3-0.7,0.6L9.9,2.9
		c-0.9,0.2-1.7,0.6-2.4,1L5.7,2.5C5.5,2.2,5.1,2.3,4.8,2.5L2.5,4.8C2.3,5.1,2.2,5.5,2.5,5.7l1.4,1.8c-0.4,0.7-0.8,1.5-1,2.4
		l-2.2,0.3c-0.3,0-0.6,0.4-0.6,0.7v3.3c0,0.3,0.3,0.7,0.6,0.7l2.2,0.3c0.2,0.8,0.6,1.7,1,2.4l-1.4,1.8c-0.2,0.3-0.2,0.7,0.1,0.9
		l2.3,2.3c0.2,0.2,0.7,0.3,0.9,0.1l1.8-1.4c0.7,0.4,1.5,0.8,2.4,1l0.3,2.2c0,0.3,0.4,0.6,0.7,0.6h3.3c0.3,0,0.7-0.3,0.7-0.6l0.3-2.2
		c0.9-0.2,1.7-0.6,2.4-1l1.8,1.4c0.3,0.2,0.7,0.2,0.9-0.1l2.3-2.3c0.2-0.2,0.3-0.7,0.1-0.9l-1.4-1.8c0.4-0.7,0.8-1.5,1-2.4l2.2-0.3
		c0.3,0,0.6-0.4,0.6-0.7v-3.3C25,10.5,24.7,10.2,24.4,10.2z M12.5,18.7c-3.5,0-6.2-2.8-6.2-6.2S9,6.2,12.5,6.2s6.2,2.8,6.2,6.2
		S16,18.7,12.5,18.7z"/>
</g>
<path class="st1" d="M12.5,6.1C9,6.1,6.1,9,6.1,12.5s2.9,6.4,6.4,6.4s6.4-2.9,6.4-6.4S16,6.1,12.5,6.1z M15.6,13H13h-1H9.4
	c-0.3,0-0.5-0.2-0.5-0.5S9.2,12,9.4,12H12h1h2.6c0.3,0,0.5,0.2,0.5,0.5S15.8,13,15.6,13z M12,15.6V13v-1V9.4c0-0.3,0.2-0.5,0.5-0.5
	S13,9.2,13,9.4V12v1v2.6c0,0.3-0.2,0.5-0.5,0.5S12,15.8,12,15.6z"/>
</svg>
