<?xml version="1.0" encoding="utf-8"?>
<!-- Generator: Adobe Illustrator 23.0.6, SVG Export Plug-In . SVG Version: 6.00 Build 0)  -->
<svg version="1.1" id="Capa_1" xmlns="http://www.w3.org/2000/svg" xmlns:xlink="http://www.w3.org/1999/xlink" x="0px" y="0px"
	 viewBox="0 0 98.6 98.6" style="enable-background:new 0 0 98.6 98.6;" xml:space="preserve">
<style type="text/css">
	.st0{fill:#FFFFFF;}
</style>
<g>
	<g>
		<path class="st0" d="M47.2,65.1h-3.7V40.8c0-1.8-1.5-3.3-3.3-3.3h-9c-1.8,0-3.3,1.5-3.3,3.3v24.5h-3.7c-0.8,0-1.6,0.5-2,1.3
			c-0.2,0.7-0.1,1.8,0.4,2.3l9.8,11.5c0.8,0.9,2.1,1.5,3.3,1.5c1.3,0,2.6-0.6,3.3-1.5l9.8-11.5c0.6-0.7,0.7-1.5,0.2-2.2
			C48.9,65.6,48.2,65.1,47.2,65.1z"/>
		<path class="st0" d="M66.4,39c-0.8-0.9-2.1-1.5-3.3-1.5c-1.3,0-2.6,0.6-3.3,1.5l-9.8,11.5c-0.6,0.7-0.7,1.5-0.2,2.2
			c0.4,0.7,1.2,1.3,2,1.3h3.7v24.5c0,1.8,1.5,3.3,3.3,3.3h9c1.8,0,3.3-1.5,3.3-3.3V54.1h3.7c0.8,0,1.6-0.5,2-1.3
			c0.4-0.7,0.2-1.8-0.2-2.2L66.4,39z"/>
		<path class="st0" d="M77.6,16.1c-0.7-0.1-1.3-0.4-1.8-0.9c-3.7-5.2-10-8.3-16.4-8.3c-0.4,0-0.8,0-1.3,0c-0.6,0-1.2-0.1-1.5-0.5
			c-4-3-8.8-4.7-13.8-4.7c-9,0-17,5.3-20.8,13.1c-0.4,0.7-1.1,1.3-1.8,1.3c-10,1.5-17.7,10.1-17.7,20.4c0,11.4,9.2,20.4,20.4,20.4
			h0.8v-16c0-4,3.3-7.3,7.3-7.3h9c4,0,7.3,3.3,7.3,7.3v6.4l9.4-10.8c1.6-1.9,3.9-2.9,6.3-2.9s4.8,1.1,6.3,2.9l9.8,11.5
			c1.5,1.8,1.9,4.3,0.8,6.6c-0.4,0.9-1.1,1.6-1.8,2.2c10.1-1.3,17.9-9.8,17.9-20.4C96.3,25.8,88,17,77.6,16.1z"/>
	</g>
</g>
</svg>
