<?xml version="1.0" encoding="utf-8"?>
<!-- Generator: Adobe Illustrator 23.0.6, SVG Export Plug-In . SVG Version: 6.00 Build 0)  -->
<svg version="1.1" id="Capa_1" xmlns="http://www.w3.org/2000/svg" xmlns:xlink="http://www.w3.org/1999/xlink" x="0px" y="0px"
	 viewBox="0 0 512 512" style="enable-background:new 0 0 512 512;" xml:space="preserve">
<style type="text/css">
	.st0{fill:#46743C;}
</style>
<g>
	<g>
		<path class="st0" d="M467,61H45C20.2,61,0,81.2,0,106v300c0,24.7,20.1,45,45,45h422c24.7,0,45-20.1,45-45V106
			C512,81.3,491.9,61,467,61z M460.8,91L257,294.8L51.4,91H460.8z M30,399.8V112.1l144.5,143.2L30,399.8z M51.2,421l144.6-144.6
			l50.7,50.2c5.9,5.8,15.3,5.8,21.2,0l49.4-49.4L460.8,421H51.2z M482,399.8L338.2,256L482,112.2V399.8z"/>
	</g>
</g>
</svg>
