<?xml version="1.0" encoding="UTF-8"?>
<svg xmlns="http://www.w3.org/2000/svg" id="Layer_1" data-name="Layer 1" viewBox="0 0 24 24" width="512" height="512">
<style type="text/css">
	.st0{fill:#46743C;}
</style>
<g>
<path d="M6.97,13h-1.97v6h1v-2h.97c1.11,0,2.01-.92,2.01-2.02s-.9-1.98-2.01-1.98Zm0,3h-.97v-2h.97c.56,0,1.01,.44,1.01,.98s-.46,1.02-1.01,1.02Zm5.03-3h0c-.06,0-2,0-2,0v6s1.94,0,2,0h0c1.11,0,2-.89,2-1.98v-2.03c0-1.09-.89-1.98-2-1.98Zm1,4.02c0,.53-.43,.96-.96,.98h-1.04v-4h1.04c.53,.02,.96,.46,.96,.98v2.03Zm2-4.02h4v1h-3v2s2,0,2,0v1h-2v2h-1v-6Zm-.29-13H4.5c-1.38,0-2.5,1.12-2.5,2.5V24H22V7.29L14.71,0Zm.29,1.71l5.29,5.29h-5.29V1.71ZM3,23V2.5c0-.83,.67-1.5,1.5-1.5H14v7h7v15H3Z"/>
</g>
</svg>
