<?xml version="1.0" encoding="utf-8"?>
<!-- Generator: Adobe Illustrator 23.0.6, SVG Export Plug-In . SVG Version: 6.00 Build 0)  -->
<svg version="1.1" id="Capa_1" xmlns="http://www.w3.org/2000/svg" xmlns:xlink="http://www.w3.org/1999/xlink" x="0px" y="0px"
	 viewBox="0 0 58 58" style="enable-background:new 0 0 58 58;" xml:space="preserve">
<style type="text/css">
	.st0{fill:#2A4423;}
	.st1{fill:#1A2D14;}
	.st2{fill:#46743C;}
</style>
<g>
	<path class="st0" d="M50.3,12.5H25l-5-7H1.7C0.8,5.5,0,6.3,0,7.2V50c0.1,0,0.1,0,0.2,0l10-27.3c0.2-0.7,0.8-1.2,1.5-1.2H52v-7.3
		C52,13.3,51.2,12.5,50.3,12.5z"/>
</g>
<g>
	<g>
		<path class="st1" d="M54.4,3.6c-3-3-7.9-3-10.9,0c-2,2-2.8,5.1-1.9,7.8L33,20c-0.1,0.1-0.2,0.3-0.2,0.5v3.9c0,0.4,0.3,0.7,0.7,0.7
			h3.9c0.2,0,0.4-0.1,0.5-0.2l1-1c0.2-0.2,0.2-0.4,0.2-0.6L39,22.3l1.5-0.1c0.3,0,0.6-0.3,0.6-0.6l0.1-1.5l1.1,0.1
			c0.2,0,0.4,0,0.5-0.2c0.1-0.1,0.2-0.3,0.2-0.5v-1.3h1.3c0.2,0,0.4-0.1,0.5-0.2l1.8-1.8c2.7,0.9,5.7,0.2,7.7-1.8
			C57.4,11.4,57.4,6.6,54.4,3.6z M52.4,8.5c-0.8,0.8-2.1,0.8-3,0s-0.8-2.1,0-3s2.1-0.8,3,0S53.3,7.7,52.4,8.5z"/>
	</g>
</g>
<path class="st2" d="M46.3,52.5H1.6c-1,0-1.8-1-1.5-2l10.2-27.9c0.2-0.7,0.8-1.2,1.5-1.2h44.8c1,0,1.5,1,1.5,2L47.8,51.3
	C47.7,52,47,52.5,46.3,52.5z"/>
</svg>
