<?xml version="1.0" encoding="utf-8"?>
<!-- Generator: Adobe Illustrator 23.0.6, SVG Export Plug-In . SVG Version: 6.00 Build 0)  -->
<svg version="1.1" id="Layer_1" xmlns="http://www.w3.org/2000/svg" xmlns:xlink="http://www.w3.org/1999/xlink" x="0px" y="0px"
	 viewBox="0 0 512 512" style="enable-background:new 0 0 512 512;" xml:space="preserve">
<style type="text/css">
	.st0{fill:#46743C;}
</style>
<g id="surface1">
	<path class="st0" d="M474.7,130.4H100.2c-20.3,0-37.4,16.5-37.4,36.8v301.7h411.9c20.3,0,37.3-17.1,37.3-37.5V167.2
		C512,146.9,495.1,130.4,474.7,130.4z M215.3,293.2l16.4,16.4c3.8,3.8,3.8,10.1,0,13.9c-2,2-4.4,2.8-7,2.8c-2.6,0-5-1-7-2.8
		l-16.4-16.4c-24.4-24.4-24.4-64.4,0-89c24.5-24.5,64.4-24.5,89.1-0.1l16.5,16.5c3.8,3.8,3.8,10.1,0,13.9c-3.8,3.8-10.1,3.8-13.9,0
		L276.6,232c-17-16.7-44.4-16.7-61.3,0C198.4,249,198.4,276.5,215.3,293.2z M255.3,272.2c3.8-3.8,10.1-3.8,13.9,0l42.3,42.3
		c3.8,3.8,3.8,10.1,0,13.9c-2,2-4.4,2.8-7,2.8s-5-1-7-2.8l-42.3-42.3C251.4,282.1,251.4,276,255.3,272.2z M365.5,382.3
		c-12.2,12.2-28.3,18.3-44.6,18.3c-16.1,0-32.2-6-44.6-18.2L259.9,366c-3.8-3.8-3.8-10.1,0-13.9c3.8-3.8,10.1-3.8,13.9,0l16.4,16.4
		c17,16.7,44.4,16.7,61.3,0c16.7-17,16.7-44.4,0-61.2l-16.4-16.4c-3.8-3.8-3.8-10.1,0-13.9c3.8-3.8,10.1-3.8,13.9,0l16.4,16.4
		C389.9,317.7,389.9,357.6,365.5,382.3z"/>
	<path class="st0" d="M236.4,110.7l-43.6-53.8c-7-8.6-17.5-13.9-28.6-13.9h-127C16.9,43,0,60.1,0,80.5v350.9
		C0,451.7,16.9,469,37.3,469h5.8V167.2c0-31.3,26-56.5,57.1-56.5H236.4z"/>
</g>
</svg>
