<?xml version="1.0" encoding="utf-8"?>
<!-- Generator: Adobe Illustrator 23.0.6, SVG Export Plug-In . SVG Version: 6.00 Build 0)  -->
<svg version="1.1" id="Capa_1" xmlns="http://www.w3.org/2000/svg" xmlns:xlink="http://www.w3.org/1999/xlink" x="0px" y="0px"
	 viewBox="0 0 66.4 58" style="enable-background:new 0 0 66.4 58;" xml:space="preserve">
<style type="text/css">
	.st0{fill:#46743C;}
	.st1{fill:#2A4423;}
	.st2{fill:#990505;stroke:#FFFFFF;stroke-width:1.1;stroke-miterlimit:10;}
</style>
<path class="st0" d="M56,54.5H2c-1.1,0-2-0.9-2-2v-32h58v32C58,53.6,57.1,54.5,56,54.5z"/>
<path class="st1" d="M26,11.5v-6c0-1.1-0.9-2-2-2H2c-1.1,0-2,0.9-2,2v5v10h58v-7c0-1.1-0.9-2-2-2H26z"/>
<path class="st2" d="M58,40.4c-3.9,0-7.1,3.2-7.1,7.1s3.2,7.1,7.1,7.1s7.1-3.2,7.1-7.1S61.9,40.4,58,40.4z M61.4,48h-2.9h-1.1h-2.9
	c-0.3,0-0.5-0.2-0.5-0.5c0-0.3,0.2-0.5,0.5-0.5h2.9h1.1h2.9c0.3,0,0.5,0.2,0.5,0.5C62,47.8,61.7,48,61.4,48z"/>
</svg>
