<?xml version="1.0" encoding="utf-8"?>
<!-- Generator: Adobe Illustrator 23.0.6, SVG Export Plug-In . SVG Version: 6.00 Build 0)  -->
<svg version="1.1" id="Capa_1" xmlns="http://www.w3.org/2000/svg" xmlns:xlink="http://www.w3.org/1999/xlink" x="0px" y="0px"
	 viewBox="0 0 58 58" style="enable-background:new 0 0 58 58;" xml:space="preserve">
<style type="text/css">
	.st0{fill:#2A4423;}
	.st1{fill:#147;}
</style>
<g>
	<path class="st0" d="M50.3,12.5H25l-5-7H1.7C0.8,5.5,0,6.3,0,7.2V50c0.1,0,0.1,0,0.2,0l10-27.3c0.2-0.7,0.8-1.2,1.5-1.2H52v-7.3
		C52,13.3,51.2,12.5,50.3,12.5z"/>
</g>
<path class="st1" d="M46.3,52.5H1.6c-1,0-1.8-1-1.5-2l10.2-27.9c0.2-0.7,0.8-1.2,1.5-1.2h44.8c1,0,1.5,1,1.5,2L47.8,51.3
	C47.7,52,47,52.5,46.3,52.5z"/>
</svg>
