<?xml version="1.0" encoding="utf-8"?>
<!-- Generator: Adobe Illustrator 23.0.6, SVG Export Plug-In . SVG Version: 6.00 Build 0)  -->
<svg version="1.1" id="Capa_1" xmlns="http://www.w3.org/2000/svg" xmlns:xlink="http://www.w3.org/1999/xlink" x="0px" y="0px"
	 viewBox="0 0 592.8 592.8" style="enable-background:new 0 0 592.8 592.8;" xml:space="preserve">
<style type="text/css">
	.st0{fill:#147;}
</style>
<g>
	<path class="st0" d="M589.2,356.2L484.4,554.5c-5.1,9.9-19.7,20.3-30.9,20.3l-420.1,0.1c-8.9,0-17.4-3.5-23.7-9.8
		C3.5,558.8,0,550.3,0,541.4l0.1-326.2c0-18.4,15-33.4,33.4-33.4l30.7,0v28.5H43.6c-4,0-7.9,1.6-10.7,4.4c-2.8,2.8-4.4,6.7-4.4,10.7
		l0,305.8c0,8.4,6.8,15.2,15.2,15.2h21L164,345.5c5.6-11.2,16.2-20.3,27.4-20.3h243.1l0.1-80.8c15.9,1.5,28.4,14.6,28.4,30.9v49.9
		h111.5C587.7,325.4,598.8,338.4,589.2,356.2z M83.6,445.3c-0.9-100,0-399.9,0-399.9C83.6,30.3,95.9,18,111,18h219.6
		c3.5,0,6.9,1.5,9.3,4.1l71,77.1c2.1,2.3,3.3,5.4,3.3,8.5v199.8h-23V124.9c0-3.2-2.6-5.7-5.7-5.7h-54.3c-6.4,0-11.5-5.2-11.5-11.5
		v-61c0-3.2-2.6-5.7-5.7-5.7H111c-2.4,0-4.4,2-4.4,4.4v374.7L89,455.8C89,455.8,83.6,455.4,83.6,445.3z M342.6,96.2h34.2L342.6,59
		L342.6,96.2L342.6,96.2z M355.1,142.7H142.8c-7.8,0-14.2,6.4-14.2,14.2c0,7.8,6.4,14.2,14.2,14.2h212.3c7.8,0,14.2-6.4,14.2-14.2
		C369.2,149,362.9,142.7,355.1,142.7z M369.2,239.4c0-7.8-6.4-14.2-14.2-14.2H142.8c-7.8,0-14.2,6.4-14.2,14.2
		c0,7.8,6.4,14.2,14.2,14.2h212.3C362.9,253.5,369.2,247.2,369.2,239.4z M128.6,322.5c0,7.8,6.4,14.2,14.2,14.2h5.1
		c9-25,31.2-28.3,31.2-28.3h-36.3C135,308.3,128.6,314.7,128.6,322.5z"/>
</g>
</svg>
