<?xml version="1.0" encoding="utf-8"?>
<!-- Generator: Adobe Illustrator 23.0.6, SVG Export Plug-In . SVG Version: 6.00 Build 0)  -->
<svg version="1.1" id="Layer_1" xmlns="http://www.w3.org/2000/svg" xmlns:xlink="http://www.w3.org/1999/xlink" x="0px" y="0px"
	 viewBox="0 0 512 512" style="enable-background:new 0 0 512 512;" xml:space="preserve">
<style type="text/css">
	.st0{fill:#147;}
</style>
<g id="surface1">
	<path class="st0" d="M496.7,197.4H15.3c-4.5,0-8.5,1.8-11.6,5.2s-4.2,7.6-3.6,12.1l31.7,227.1c2.7,18.7,18.8,33.1,37.8,33.1H443
		c19,0,35.3-14.4,37.8-33.2l31.1-227.1c0.6-4.5-0.6-8.7-3.6-12.1C505.2,199.2,501.1,197.4,496.7,197.4z M185.5,328.9l16.9,16.9
		c3.9,3.9,3.9,10.4,0,14.4c-2,2-4.6,2.9-7.3,2.9s-5.2-1-7.3-2.9L171,343.2c-25.2-25.2-25.2-66.6,0-92c25.3-25.3,66.6-25.3,92.2-0.1
		l17.1,17.1c3.9,3.9,3.9,10.4,0,14.4c-3.9,3.9-10.4,3.9-14.4,0l-16.9-16.9c-17.6-17.3-45.9-17.3-63.4,0
		C168.2,283.2,168.2,311.5,185.5,328.9z M227,307.1c3.9-3.9,10.4-3.9,14.4,0l43.8,43.8c3.9,3.9,3.9,10.4,0,14.4
		c-2,2-4.6,2.9-7.3,2.9c-2.7,0-5.2-1-7.3-2.9l-43.8-43.8C222.9,317.4,222.9,311,227,307.1z M341,421c-12.6,12.6-29.3,19-46.1,19
		c-16.7,0-33.3-6.2-46.1-18.8l-17.1-17.1c-3.9-3.9-3.9-10.4,0-14.4s10.4-3.9,14.4,0l16.9,16.9c17.6,17.3,45.9,17.3,63.4,0
		c17.3-17.6,17.3-45.9,0-63.3l-16.9-16.9c-3.9-3.9-3.9-10.4,0-14.4s10.4-3.9,14.4,0l16.9,16.9C366.1,354.2,366.2,395.4,341,421z"/>
	<path class="st0" d="M42.6,177h431.1v-32.2c0-21-16.7-37.8-37.8-37.8H276.6c-20.5,0-39.7-11.2-50.1-28.8l-13.2-22.5
		C206.4,44.3,193.9,37,180.5,37H76.3c-10.6,0-20.4,4.5-27.6,12.1c-7.3,7.6-11.1,17.8-10.6,28.4L42.6,177z"/>
</g>
</svg>
