<?xml version="1.0" encoding="utf-8"?>
<!-- Generator: Adobe Illustrator 23.0.6, SVG Export Plug-In . SVG Version: 6.00 Build 0)  -->
<svg version="1.1" id="Capa_1" xmlns="http://www.w3.org/2000/svg" xmlns:xlink="http://www.w3.org/1999/xlink" x="0px" y="0px"
	 viewBox="0 0 510 510" style="enable-background:new 0 0 510 510;" xml:space="preserve">
<style type="text/css">
	.st0{fill:#46743C;}
</style>
<g>
	<g id="folder-shared">
		<path class="st0" d="M459,102H255l-51-51H51C23,51,0,73.9,0,102v306c0,28,23,51,51,51h408c28,0,51-23,51-51V153
			C510,124.9,487,102,459,102z M331.5,178.5c28,0,51,22.9,51,51s-23,51-51,51s-51-23-51-51S303.5,178.5,331.5,178.5z M433.5,382.5
			h-204V357c0-33.1,68.9-51,102-51s102,17.9,102,51V382.5z"/>
	</g>
</g>
</svg>
