<?xml version="1.0" encoding="utf-8"?>
<!-- Generator: Adobe Illustrator 23.0.6, SVG Export Plug-In . SVG Version: 6.00 Build 0)  -->
<svg version="1.1" id="Capa_1" xmlns="http://www.w3.org/2000/svg" xmlns:xlink="http://www.w3.org/1999/xlink" x="0px" y="0px"
	 viewBox="0 0 198.1 198.1" style="enable-background:new 0 0 198.1 198.1;" xml:space="preserve">
<style type="text/css">
	.st0{fill:#46743C;}
</style>
<path class="st0" d="M195.5,68.2c-1.9-2.1-4.6-3.3-7.4-3.3H10c-2.8,0-5.5,1.2-7.4,3.3S-0.2,73,0,75.8l9.5,102.1
	c0.5,5.1,4.8,9.1,10,9.1h159.1c5.2,0,9.5-3.9,10-9.1l9.5-102.1C198.4,73,197.4,70.3,195.5,68.2z M132.4,166.1
	C132.4,166.1,132.4,166.1,132.4,166.1H65.7c-5.5,0-10-4.5-10-10c0-13.6,11-24.6,24.6-24.6h7.2c-7.4-4.1-12.4-11.9-12.4-21
	c0-13.2,10.7-23.9,23.9-23.9S123,97.3,123,110.5c0,9-5,16.9-12.4,21h7.2c13.3,0,24.2,10.6,24.6,23.8c0,0.3,0,0.5,0,0.8
	C142.4,161.6,137.9,166.1,132.4,166.1z M178.9,46.3c0,4.1-3.4,7.5-7.5,7.5H26.7c-4.1,0-7.5-3.4-7.5-7.5s3.4-7.5,7.5-7.5h144.7
	C175.5,38.8,178.9,42.2,178.9,46.3z M159.1,18.6c0,4.1-3.4,7.5-7.5,7.5H46.5c-4.1,0-7.5-3.4-7.5-7.5s3.4-7.5,7.5-7.5h105.1
	C155.7,11.1,159.1,14.5,159.1,18.6z"/>
</svg>
