<?xml version="1.0" encoding="utf-8"?>
<!-- Generator: Adobe Illustrator 23.0.6, SVG Export Plug-In . SVG Version: 6.00 Build 0)  -->
<svg version="1.1" id="Capa_1" xmlns="http://www.w3.org/2000/svg" xmlns:xlink="http://www.w3.org/1999/xlink" x="0px" y="0px"
	 viewBox="0 0 23.6 23.6" style="enable-background:new 0 0 23.6 23.6;" xml:space="preserve">
<style type="text/css">
	.st0{fill:#147;}
</style>
<g>
	<path class="st0" d="M11.8,0C5.3,0,0,5.3,0,11.8s5.3,11.8,11.8,11.8s11.8-5.3,11.8-11.8S18.3,0,11.8,0z M14.3,18.3
		c-0.6,0.2-1.1,0.4-1.5,0.5C12.5,19,12,19,11.6,19c-0.7,0-1.3-0.2-1.7-0.5s-0.6-0.8-0.6-1.4c0-0.2,0-0.4,0-0.7
		c0-0.2,0.1-0.5,0.1-0.8l0.8-2.7c0.1-0.3,0.1-0.5,0.2-0.7c0-0.2,0.1-0.4,0.1-0.6c0-0.3-0.1-0.6-0.2-0.7c-0.1-0.1-0.4-0.2-0.8-0.2
		c-0.2,0-0.4,0-0.6,0.1C8.6,10.9,8.4,11,8.3,11l0.2-0.8C9,10,9.4,9.8,9.9,9.7s0.9-0.2,1.3-0.2c0.7,0,1.3,0.2,1.7,0.5
		c0.4,0.4,0.6,0.8,0.6,1.4c0,0.1,0,0.3,0,0.6s-0.1,0.6-0.2,0.8l-0.8,2.7c-0.1,0.2-0.1,0.5-0.2,0.7c0,0.3-0.1,0.5-0.1,0.6
		c0,0.4,0.1,0.6,0.2,0.7c0.2,0.1,0.4,0.2,0.8,0.2c0.2,0,0.4,0,0.6-0.1c0.2-0.1,0.4-0.1,0.5-0.2V18.3z M14.1,7.4
		c-0.4,0.3-0.8,0.5-1.3,0.5s-0.9-0.2-1.3-0.5C11.2,7.1,11,6.7,11,6.2s0.2-0.9,0.5-1.2c0.4-0.3,0.8-0.5,1.3-0.5s0.9,0.2,1.3,0.5
		c0.4,0.3,0.5,0.7,0.5,1.2C14.7,6.7,14.5,7.1,14.1,7.4z"/>
</g>
</svg>
