<svg id="Layer_1" data-name="Layer 1" xmlns="http://www.w3.org/2000/svg" viewBox="0 0 44 51"><defs><style>.cls-1{fill:#46743c;}</style></defs><title>jupyter_icon</title><g id="Canvas"><g id="Group"><g id="g"><g id="path"><path id="path0_fill" data-name="path0 fill" class="cls-1" d="M2.29,26.84c0,1.55-.13,2.06-.45,2.43a1.91,1.91,0,0,1-1.3.5l.12.89a3,3,0,0,0,2-.74,3.52,3.52,0,0,0,.67-1.25,3.77,3.77,0,0,0,.12-1.42V21.36H2.29v5.48Z"/></g><path id="path1_fill" data-name="path1 fill" class="cls-1" d="M11.18,26.13a16.12,16.12,0,0,0,.06,1.78H10.18l-.08-1.06a2.38,2.38,0,0,1-.91.9,2.58,2.58,0,0,1-1.25.32c-1,0-2.26-.57-2.26-2.85V21.41H6.87V25c0,1.23.39,2.06,1.46,2.06A1.82,1.82,0,0,0,9,26.92a1.72,1.72,0,0,0,.55-.37A1.69,1.69,0,0,0,10,25.36v-4h1.19V26.1Z"/><path id="path2_fill" data-name="path2 fill" class="cls-1" d="M13.44,23.53c0-.83,0-1.5,0-2.12h1.07l0,1.12a2.54,2.54,0,0,1,1-1,2.62,2.62,0,0,1,1.34-.31c1.59,0,2.78,1.33,2.78,3.31,0,2.33-1.43,3.49-3,3.49a2.41,2.41,0,0,1-1.15-.25,2.33,2.33,0,0,1-.87-.78h0v3.56H13.44V23.53Zm1.18,1.74a2.61,2.61,0,0,0,.05.48,1.83,1.83,0,0,0,.66,1,1.8,1.8,0,0,0,1.12.38c1.26,0,2-1,2-2.51,0-1.3-.7-2.41-1.95-2.41a2,2,0,0,0-1.31.62,2,2,0,0,0-.57,1.33Z"/><path id="path3_fill" data-name="path3 fill" class="cls-1" d="M21.75,21.41l1.43,3.83c.15.43.31,1,.42,1.33.12-.39.26-.89.42-1.35l1.3-3.81h1.25L24.79,26c-.89,2.22-1.43,3.37-2.25,4.07a3.26,3.26,0,0,1-1.46.76l-.29-1a3.2,3.2,0,0,0,1-.57,3.59,3.59,0,0,0,1-1.32.77.77,0,0,0,.1-.29,1.18,1.18,0,0,0-.08-.31l-2.42-6h1.3Z"/><path id="path4_fill" data-name="path4 fill" class="cls-1" d="M29.74,19.54v1.87h1.71v.89H29.74v3.51c0,.8.23,1.26.89,1.26a2.29,2.29,0,0,0,.69-.08l.06.89a2.94,2.94,0,0,1-1.06.16,1.52,1.52,0,0,1-.7-.11,1.45,1.45,0,0,1-.59-.39,2.43,2.43,0,0,1-.47-1.69V22.29h-1V21.4h1V19.82Z"/><path id="path5_fill" data-name="path5 fill" class="cls-1" d="M33.65,24.87a2,2,0,0,0,.12.89,2.18,2.18,0,0,0,.48.76A2.33,2.33,0,0,0,35,27a2.07,2.07,0,0,0,.89.12,4.18,4.18,0,0,0,1.78-.34l.2.89a5.25,5.25,0,0,1-2.18.4,3,3,0,0,1-1.28-.19,3,3,0,0,1-1.08-.7,3,3,0,0,1-.69-1.1,3,3,0,0,1-.17-1.28c0-2,1.17-3.51,3.07-3.51,2.14,0,2.67,1.87,2.67,3.06a5,5,0,0,1,0,.55h-4.6ZM37.14,24a1.88,1.88,0,0,0,0-.71,1.83,1.83,0,0,0-.34-.63,1.72,1.72,0,0,0-.57-.43,1.69,1.69,0,0,0-.7-.15,1.93,1.93,0,0,0-1.28.6A2,2,0,0,0,33.66,24Z"/><path id="path6_fill" data-name="path6 fill" class="cls-1" d="M40,23.43c0-.76,0-1.42-.05-2h1.07v1.28h.05a2,2,0,0,1,.66-1,2.12,2.12,0,0,1,1.46-.43v1.11h-.41a1.68,1.68,0,0,0-1.08.46,1.64,1.64,0,0,0-.51,1.06,3.31,3.31,0,0,0-.06.55v3.46H40V23.44Z"/></g></g><path id="path7_fill" data-name="path7 fill" class="cls-1" d="M39.51,3.53a3,3,0,0,1-1.7,2.9A3,3,0,0,1,34.48,6a3,3,0,0,1-.82-3.26,3,3,0,0,1,1.05-1.41A3,3,0,0,1,37.52.86a2.88,2.88,0,0,1,1,.6,3,3,0,0,1,.7.93,3.18,3.18,0,0,1,.28,1.14Z"/><path id="path8_fill" data-name="path8 fill" class="cls-1" d="M21.91,38.39c-8,0-15.06-2.87-18.7-7.12a19.93,19.93,0,0,0,37.39,0C37,35.52,30,38.39,21.91,38.39Z"/><path id="path9_fill" data-name="path9 fill" class="cls-1" d="M21.91,10.78c8,0,15.05,2.87,18.69,7.12a19.93,19.93,0,0,0-37.39,0C6.85,13.64,13.86,10.78,21.91,10.78Z"/><path id="path10_fill" data-name="path10 fill" class="cls-1" d="M10.88,46.66a3.86,3.86,0,0,1-.52,2.15,3.81,3.81,0,0,1-1.62,1.51,3.93,3.93,0,0,1-2.19.34,3.79,3.79,0,0,1-2-.94,3.73,3.73,0,0,1-1.14-1.9,3.79,3.79,0,0,1,.1-2.21,3.86,3.86,0,0,1,1.33-1.78,3.92,3.92,0,0,1,3.54-.53,3.85,3.85,0,0,1,2.14,1.93,3.74,3.74,0,0,1,.37,1.43Z"/><path id="path11_fill" data-name="path11 fill" class="cls-1" d="M4.12,9.81A2.18,2.18,0,0,1,2.9,9.48a2.23,2.23,0,0,1-.84-1A2.26,2.26,0,0,1,1.9,7.26a2.13,2.13,0,0,1,.56-1.13,2.18,2.18,0,0,1,2.36-.56,2.13,2.13,0,0,1,1,.76,2.18,2.18,0,0,1,.42,1.2A2.22,2.22,0,0,1,4.12,9.81Z"/></g></svg>
