<?xml version="1.0" encoding="utf-8"?>
<!-- Generator: Adobe Illustrator 23.0.6, SVG Export Plug-In . SVG Version: 6.00 Build 0)  -->
<svg version="1.1" id="Capa_1" xmlns="http://www.w3.org/2000/svg" xmlns:xlink="http://www.w3.org/1999/xlink" x="0px" y="0px"
	 viewBox="0 0 475.1 475.1" style="enable-background:new 0 0 475.1 475.1;" xml:space="preserve">
<style type="text/css">
	.st0{fill:#46743C;}
</style>
<g>
	<g>
		<path class="st0" d="M467.1,327.8c-5.3-5.3-11.8-8-19.4-8H325.8c-4,10.7-10.7,19.4-20.1,26.3c-9.4,6.9-19.9,10.3-31.5,10.3H201
			c-11.6,0-22.1-3.4-31.5-10.3c-9.4-6.9-16.1-15.6-20.1-26.3H27.4c-7.6,0-14.1,2.7-19.4,8c-5.3,5.3-8,11.8-8,19.4v91.4
			c0,7.6,2.7,14.1,8,19.4c5.3,5.3,11.8,8,19.4,8h420.3c7.6,0,14.1-2.7,19.4-8c5.3-5.3,8-11.8,8-19.4v-91.4
			C475.1,339.6,472.4,333.1,467.1,327.8z M360,424c-3.6,3.6-7.9,5.4-12.9,5.4s-9.2-1.8-12.8-5.4c-3.6-3.6-5.4-7.9-5.4-12.8
			s1.8-9.2,5.4-12.8c3.6-3.6,7.9-5.4,12.8-5.4s9.2,1.8,12.9,5.4c3.6,3.6,5.4,7.9,5.4,12.8S363.6,420.4,360,424z M433.1,424
			c-3.6,3.6-7.9,5.4-12.8,5.4c-4.9,0-9.2-1.8-12.8-5.4c-3.6-3.6-5.4-7.9-5.4-12.8s1.8-9.2,5.4-12.8c3.6-3.6,7.9-5.4,12.8-5.4
			c4.9,0,9.2,1.8,12.8,5.4c3.6,3.6,5.4,7.9,5.4,12.8S436.7,420.4,433.1,424z"/>
		<path class="st0" d="M109.6,173.6h73.1v127.9c0,4.9,1.8,9.2,5.4,12.8c3.6,3.6,7.9,5.4,12.8,5.4h73.1c4.9,0,9.2-1.8,12.8-5.4
			c3.6-3.6,5.4-7.9,5.4-12.8V173.6h73.1c8,0,13.6-3.8,16.8-11.4c3.2-7.4,1.9-14-4-19.7L250.4,14.6c-3.4-3.6-7.7-5.4-12.8-5.4
			c-5.1,0-9.4,1.8-12.8,5.4L96.8,142.5c-5.9,5.7-7.2,12.3-4,19.7C96,169.8,101.6,173.6,109.6,173.6z"/>
	</g>
</g>
</svg>
