<?xml version="1.0" encoding="utf-8"?>
<!-- Generator: Adobe Illustrator 23.0.6, SVG Export Plug-In . SVG Version: 6.00 Build 0)  -->
<svg version="1.1" id="Capa_1" xmlns="http://www.w3.org/2000/svg" xmlns:xlink="http://www.w3.org/1999/xlink" x="0px" y="0px"
	 viewBox="0 0 548.3 548.3" style="enable-background:new 0 0 548.3 548.3;" xml:space="preserve">
<style type="text/css">
	.st0{fill:#46743C;}
	.st1{fill:#FFFFFF;}
	.st2{fill:#46743C;stroke:#FFFFFF;stroke-width:10;stroke-miterlimit:10;}
</style>
<g>
	<path class="st0" d="M486.2,196.1H473v-63.5c0-0.4-0.1-0.8-0.1-1.2c0-2.5-0.8-5-2.6-7L364.7,3.7c0,0-0.1,0-0.1-0.1
		c-0.6-0.7-1.4-1.3-2.1-1.8c-0.2-0.2-0.5-0.3-0.7-0.4c-0.7-0.4-1.4-0.7-2.1-0.9c-0.2-0.1-0.4-0.1-0.6-0.2c-0.8-0.2-1.6-0.3-2.5-0.3
		H96.8C84.9,0,75.3,9.6,75.3,21.5v174.6H62.1c-17,0-30.7,13.8-30.7,30.7v159.8c0,17,13.8,30.7,30.7,30.7h13.2v109.4
		c0,11.9,9.6,21.5,21.5,21.5h354.8c11.9,0,21.5-9.6,21.5-21.5V417.4h13.2c17,0,30.7-13.8,30.7-30.7V226.9
		C516.9,209.9,503.2,196.1,486.2,196.1z M96.8,21.5h249.1v110c0,5.9,4.8,10.8,10.8,10.8h95v53.9H96.8V21.5z M451.5,521H96.8V417.4
		h354.8L451.5,521L451.5,521z"/>
</g>
<rect x="96.8" y="171" class="st1" width="354.8" height="298.2"/>
<rect y="157.9" class="st1" width="75.7" height="298.2"/>
<rect x="473" y="171" class="st1" width="75.3" height="298.2"/>
<path class="st2" d="M274.1,224.1c-66,0-120,54-120,120s54,120,120,120s120-54,120-120S340.2,224.1,274.1,224.1z M331.8,353.5h-48.4
	H265h-48.4c-5,0-9.3-4.1-9.3-9.3c0-5.2,4.1-9.3,9.3-9.3H265h18.4h48.4c5,0,9.3,4.1,9.3,9.3C341.1,349.4,337,353.5,331.8,353.5z
	 M264.9,401.7v-48.4v-18.4v-48.4c0-5,4.1-9.3,9.3-9.3c5.2,0,9.3,4.1,9.3,9.3v48.4v18.4v48.4c0,5-4.1,9.3-9.3,9.3
	C269,411,264.9,406.9,264.9,401.7z"/>
</svg>
