<?xml version="1.0" encoding="utf-8"?>
<!-- Generator: Adobe Illustrator 23.0.6, SVG Export Plug-In . SVG Version: 6.00 Build 0)  -->
<svg version="1.1" id="Capa_1" xmlns="http://www.w3.org/2000/svg" xmlns:xlink="http://www.w3.org/1999/xlink" x="0px" y="0px"
	 viewBox="0 0 550.8 550.8" style="enable-background:new 0 0 550.8 550.8;" xml:space="preserve">
<style type="text/css">
	.st0{fill:#46743C;}
</style>
<g>
	<path class="st0" d="M160.4,282.2c0-14.8-10.3-23.7-28.5-23.7c-7.4,0-12.4,0.7-15.1,1.4v47.6c3.1,0.7,6.9,0.9,12.2,0.9
		C148.4,308.5,160.4,298.7,160.4,282.2z"/>
	<path class="st0" d="M272.9,259c-8.1,0-13.4,0.7-16.5,1.4V366c3.1,0.7,8.1,0.7,12.7,0.7c33,0.2,54.6-17.9,54.6-56.5
		C323.8,276.7,304.2,259,272.9,259z"/>
	<path class="st0" d="M488.4,197h-13.2v-63.8c0-0.4-0.1-0.8-0.1-1.2c0-2.5-0.8-5-2.6-7L366.3,3.7c0,0-0.1,0-0.1-0.1
		c-0.6-0.7-1.4-1.3-2.2-1.8c-0.2-0.2-0.5-0.3-0.7-0.4c-0.7-0.4-1.4-0.7-2.1-0.9c-0.2-0.1-0.4-0.1-0.6-0.2C359.9,0.1,359,0,358.2,0
		h-261C85.3,0,75.6,9.7,75.6,21.6V197H62.4c-17,0-30.9,13.8-30.9,30.9v160.5c0,17,13.8,30.9,30.9,30.9h13.2v109.9
		c0,11.9,9.7,21.6,21.6,21.6h356.4c11.9,0,21.6-9.7,21.6-21.6V419.3h13.2c17,0,30.9-13.8,30.9-30.9V227.9
		C519.3,210.8,505.5,197,488.4,197z M97.2,21.6h250.2v110.5c0,6,4.8,10.8,10.8,10.8h95.4V197H97.2V21.6z M362.4,309
		c0,30.9-11.2,52.2-26.8,65.3c-17,14.1-42.8,20.8-74.4,20.8c-18.9,0-32.3-1.2-41.4-2.4V234.4c13.4-2.1,30.9-3.3,49.3-3.3
		c30.6,0,50.5,5.5,66,17.2C351.8,260.7,362.4,280.5,362.4,309z M80.7,393.5V234.4c11.2-1.9,27-3.3,49.3-3.3
		c22.5,0,38.5,4.3,49.3,12.9c10.3,8.1,17.2,21.5,17.2,37.3c0,15.8-5.2,29.2-14.8,38.3c-12.4,11.7-30.9,17-52.4,17
		c-4.8,0-9.1-0.2-12.4-0.7v57.7L80.7,393.5L80.7,393.5z M453.6,523.4H97.2V419.3h356.4L453.6,523.4L453.6,523.4z M484.9,262.1h-62
		V299h57.9v29.7h-57.9v64.8h-36.6V232.2h98.6V262.1z"/>
</g>
</svg>
