<?xml version="1.0" encoding="utf-8"?>
<!-- Generator: Adobe Illustrator 23.0.6, SVG Export Plug-In . SVG Version: 6.00 Build 0)  -->
<svg version="1.1" id="Capa_1" xmlns="http://www.w3.org/2000/svg" xmlns:xlink="http://www.w3.org/1999/xlink" x="0px" y="0px"
	 viewBox="0 0 315.6 315.6" style="enable-background:new 0 0 315.6 315.6;" xml:space="preserve">
<style type="text/css">
	.st0{fill:#147;}
</style>
<g>
	<path class="st0" d="M310.6,33.3H5c-2.8,0-5,2.2-5,5v238.9c0,2.8,2.2,5,5,5h305.6c2.8,0,5-2.2,5-5V38.3
		C315.6,35.6,313.3,33.3,310.6,33.3z M285.6,242.4l-68.8-71.2c-0.8-0.8-2-0.8-2.8-0.1l-47.7,42l-61-75.1c-0.4-0.5-1-0.8-1.6-0.8
		c-0.6,0-1.2,0.3-1.6,0.8L30,234.8V63.3h255.6L285.6,242.4L285.6,242.4z"/>
	<path class="st0" d="M210.1,135.6c13.5,0,24.5-11,24.5-24.5c0-13.5-11-24.5-24.5-24.5c-13.5,0-24.5,11-24.5,24.5
		C185.5,124.6,196.5,135.6,210.1,135.6z"/>
</g>
</svg>
