<?xml version="1.0" encoding="utf-8"?>
<!-- Generator: Adobe Illustrator 23.0.6, SVG Export Plug-In . SVG Version: 6.00 Build 0)  -->
<svg version="1.1" id="Capa_1" xmlns="http://www.w3.org/2000/svg" xmlns:xlink="http://www.w3.org/1999/xlink" x="0px" y="0px"
	 viewBox="0 0 550.8 550.8" style="enable-background:new 0 0 550.8 550.8;" xml:space="preserve">
<style type="text/css">
	.st0{fill:#46743C;}
</style>
<g>
	<path class="st0" d="M488.4,197h-13.2v-63.8c0-0.4-0.1-0.8-0.1-1.2c0-2.5-0.8-5-2.6-7L366.3,3.7c0,0-0.1,0-0.1-0.1
		c-0.6-0.7-1.4-1.3-2.2-1.8c-0.2-0.2-0.5-0.3-0.7-0.4c-0.7-0.4-1.4-0.7-2.1-0.9c-0.2-0.1-0.4-0.1-0.6-0.2C359.9,0.1,359,0,358.2,0
		h-261C85.3,0,75.6,9.7,75.6,21.6V197H62.4c-17,0-30.9,13.8-30.9,30.9v160.5c0,17,13.8,30.9,30.9,30.9h13.2v109.9
		c0,11.9,9.7,21.6,21.6,21.6h356.4c11.9,0,21.6-9.7,21.6-21.6V419.3h13.2c17,0,30.9-13.8,30.9-30.9V227.9
		C519.3,210.8,505.5,197,488.4,197z M97.2,21.6h250.2v110.5c0,6,4.8,10.8,10.8,10.8h95.4V197H97.2V21.6z M259.5,314.9
		c-26.8-9.3-44.3-24.2-44.3-47.6c0-27.5,23-48.6,61-48.6c18.2,0,31.6,3.8,41.2,8.1l-8.1,29.4c-6.5-3.1-17.9-7.7-33.8-7.7
		c-15.8,0-23.4,7.2-23.4,15.6c0,10.3,9.1,14.8,29.9,22.7c28.5,10.5,41.9,25.4,41.9,48.1c0,27-20.8,50-65.1,50
		c-18.4,0-36.6-4.8-45.7-9.8l7.4-30.2c9.8,5,24.9,10.1,40.4,10.1c16.8,0,25.6-6.9,25.6-17.5C286.5,327.6,278.9,321.8,259.5,314.9z
		 M80.3,382.6V223.5c11.3-1.9,27.1-3.4,49.3-3.4c22.5,0,38.5,4.3,49.3,12.9c10.3,8.1,17.2,21.5,17.2,37.3c0,15.8-5.3,29.2-14.8,38.3
		c-12.4,11.7-30.9,17-52.4,17c-4.8,0-9.1-0.2-12.5-0.7v57.7H80.3L80.3,382.6z M453.6,523.4H97.2V419.3h356.4L453.6,523.4
		L453.6,523.4z M464.3,363.5c-17,14.1-42.8,20.8-74.4,20.8c-18.9,0-32.3-1.2-41.4-2.4V223.5c13.4-2.2,30.9-3.4,49.3-3.4
		c30.6,0,50.5,5.5,66,17.2c16.7,12.4,27.3,32.3,27.3,60.8C491.2,329,479.9,350.3,464.3,363.5z"/>
	<path class="st0" d="M401.7,248.1c-8.1,0-13.4,0.7-16.5,1.4v105.5c3.1,0.7,8.1,0.7,12.7,0.7c33,0.2,54.6-18,54.6-56.5
		C452.6,265.8,433,248.1,401.7,248.1z"/>
	<path class="st0" d="M160,271.3c0-14.8-10.3-23.7-28.5-23.7c-7.4,0-12.4,0.7-15.1,1.4v47.6c3.1,0.7,6.9,1,12.2,1
		C148,297.7,160,287.8,160,271.3z"/>
</g>
</svg>
