<?xml version="1.0" encoding="utf-8"?>
<!-- Generator: Adobe Illustrator 23.0.6, SVG Export Plug-In . SVG Version: 6.00 Build 0)  -->
<svg version="1.1" id="Capa_1" xmlns="http://www.w3.org/2000/svg" xmlns:xlink="http://www.w3.org/1999/xlink" x="0px" y="0px"
	 viewBox="0 0 60 60" style="enable-background:new 0 0 60 60;" xml:space="preserve">
<style type="text/css">
	.st0{fill:#FFFFFF;}
	.st1{fill:#147;}
</style>
<circle class="st0" cx="30" cy="30" r="30"/>
<path class="st1" d="M18.5,41.2c-1.9-0.7-2.9-2.6-2.5-4.4c0.3-1,1-1.8,2-2.4c0.7-0.4,0.9-0.5,0.8-0.8c-0.7-2-0.3-4.4,1.2-5.9
	c2-2,5.1-2.2,7.2-0.3c0.3,0.3,0.6,0.5,0.7,0.5s0.3-0.4,0.4-0.9c0.5-1.8,1.6-3.2,3-4.2c4-2.8,9.2-1.3,11.3,3.1c0.6,1.3,0.7,1.5,0.7,3
	c0,1.2,0,1.9-0.2,2.6c-0.1,0.5-0.2,1-0.2,1c0.1,0.1,0.3-0.2,0.6-0.5c0.6-0.6,0.6-0.6,1.9-0.2c1.3,0.4,2.5,1.7,2.9,3.1
	c0.3,1,0.2,2.5-0.2,3.4s-1.4,2-2.3,2.5c-0.6,0.3-0.8,0.4-5.4,0.4c-3,0-4.9,0-5.3-0.1c-1.4-0.4-2.5-2.1-2.5-3.8c0-2,1.6-3.8,3.4-3.8
	h0.6L36,34c-0.9,0.9-1.1,1.9-0.6,2.9c0.3,0.6,1.2,1.2,1.9,1.2s1.7-0.6,2-1.2c0.4-0.7,0.4-2.1,0-3.2c-0.4-1.2-1.4-2.2-2.6-2.9
	c-0.9-0.5-1.2-0.5-2.3-0.5c-2.2,0-2.4,0.2-7.7,5.6c-4,4.1-4.7,4.8-5.4,5C20.8,41.4,19.3,41.5,18.5,41.2L18.5,41.2z M11.7,28.1
	c-0.5-0.5-0.5-0.9-0.1-1.4c0.2-0.3,0.5-0.4,0.9-0.4c0.6,0,0.6,0,0.7-0.6c0.2-1,0.9-2.2,1.6-2.6c0.9-0.6,2-0.9,2.8-0.6
	c0.3,0.1,0.6,0.1,0.7,0s0.2-0.5,0.3-1c0.3-1.8,1.5-3.5,3.1-4.4c1-0.5,3.2-0.6,4.3-0.2c1.7,0.7,2.9,2,3.4,3.8
	c0.2,0.6,0.3,1.1,0.3,1.2S29.4,22.5,29,23s-0.9,1.2-1.2,1.7c-0.3,0.6-0.5,0.8-0.7,0.8c-0.1,0-0.7-0.2-1.2-0.4
	c-1.4-0.5-3.3-0.4-4.7,0.3c-1.2,0.6-2,1.3-2.7,2.3c-0.3,0.4-0.6,0.8-0.7,0.9s-1.4,0.1-3,0.1C12.2,28.5,12.1,28.5,11.7,28.1
	L11.7,28.1z"/>
</svg>
