<!DOCTYPE svg PUBLIC "-//W3C//DTD SVG 1.1//EN" "http://www.w3.org/Graphics/SVG/1.1/DTD/svg11.dtd">
<!-- Uploaded to: SVG Repo, www.svgrepo.com, Transformed by: SVG Repo Mixer Tools -->
<!-- NOTE: adjusted viewport to match fontawesome icons -->
<!--svg width="800px" height="800px" viewBox="0 0 192 192" xmlns="http://www.w3.org/2000/svg" fill="none"-->
<svg width="800px" height="800px" viewBox="48 16 96 160" xmlns="http://www.w3.org/2000/svg" fill="none">
<g id="SVGRepo_bgCarrier" stroke-width="0"/>
<g id="SVGRepo_tracerCarrier" stroke-linecap="round" stroke-linejoin="round"/>
<g id="SVGRepo_iconCarrier">
<path stroke="#147" stroke-linecap="round" stroke-linejoin="round" stroke-width="12" d="M68 89h56m-56 24h56m-56 24h36"/>
<path fill="#147" fill-rule="evenodd" d="M52 28a2 2 0 0 0-2 2v132a2 2 0 0 0 2 2h88a2 2 0 0 0 2-2V62h-28a6 6 0 0 1-6-6V28H52Zm68 8.485L133.515 50H120V36.485ZM38 30c0-7.732 6.268-14 14-14h62c1.591 0 3.117.632 4.243 1.757l34 34A6 6 0 0 1 154 56v106c0 7.732-6.268 14-14 14H52c-7.732 0-14-6.268-14-14V30Z" clip-rule="evenodd"/>
</g>
</svg>
