<?xml version="1.0" encoding="utf-8"?>
<!-- Generator: Adobe Illustrator 23.0.6, SVG Export Plug-In . SVG Version: 6.00 Build 0)  -->
<svg version="1.1" id="Layer_1" xmlns="http://www.w3.org/2000/svg" xmlns:xlink="http://www.w3.org/1999/xlink" x="0px" y="0px"
	 viewBox="0 0 512.1 512.1" style="enable-background:new 0 0 512.1 512.1;" xml:space="preserve">
<style type="text/css">
	.st0{fill:#46743C;}
	.st1{fill:#FFFFFF;}
</style>
<circle class="st0" cx="253.8" cy="253.8" r="247.5"/>
<g>
	<g>
		<path class="st1" d="M295.8,216.3c-4.3-4.3-9-8.1-14.2-11.3c-13.5-8.7-29.3-13.3-45.4-13.3c-22.3-0.1-43.7,8.8-59.5,24.7
			l-76.5,76.5c-15.7,15.8-24.5,37.1-24.6,59.4c0,46.5,37.6,84.2,84.1,84.2c22.3,0.1,43.7-8.7,59.5-24.5l63.1-63.1
			c1.1-1.1,1.8-2.7,1.8-4.3c0-3.3-2.7-6-6.1-6h-2.3c-13.2,0.1-26.3-2.5-38.5-7.5c-2.3-0.9-4.9-0.4-6.6,1.3l-45.4,45.4
			c-14.1,14.1-36.9,14.1-51,0s-14.1-36.9,0-51l76.8-76.7c14.1-14.1,36.9-14.1,51,0c9.5,8.9,24.3,8.9,33.8,0c4.1-4.1,6.6-9.5,7-15.3
			C303.2,228,300.7,221.2,295.8,216.3z"/>
	</g>
</g>
<g>
	<g>
		<path class="st1" d="M411.8,100.4c-32.9-32.9-86.2-32.9-119,0l-63,63c-1.8,1.8-2.3,4.4-1.3,6.6c1,2.3,3.2,3.7,5.6,3.7h2.3
			c13.2,0,26.2,2.5,38.4,7.5c2.3,0.9,4.9,0.4,6.6-1.3l45.3-45.2c14.1-14.1,36.9-14.1,51,0s14.1,36.9,0,51L321.2,242l-0.5,0.6
			L301,262.1c-14.1,14.1-36.9,14.1-51,0c-9.5-8.9-24.3-8.9-33.8,0c-4.1,4.1-6.6,9.6-7,15.4c-0.4,6.9,2.1,13.6,7,18.5
			c7,7,15.1,12.7,24,16.8c1.3,0.6,2.5,1.1,3.8,1.6c1.3,0.6,2.6,1,3.9,1.4c1.3,0.5,2.6,0.9,3.9,1.3l3.5,1c2.4,0.6,4.8,1.1,7.3,1.5
			c3,0.4,6,0.7,8.9,0.8h4.2h0.4l3.6-0.4c1.3-0.1,2.7-0.4,4.3-0.4h2l4.2-0.6l1.9-0.4l3.5-0.7h0.6c14.8-3.7,28.2-11.3,39-22.1
			l76.6-76.4C444.6,186.5,444.6,133.3,411.8,100.4z"/>
	</g>
</g>
</svg>
