<?xml version="1.0" encoding="utf-8"?>
<!-- Generator: Adobe Illustrator 23.0.6, SVG Export Plug-In . SVG Version: 6.00 Build 0)  -->
<svg version="1.1" id="Capa_1" xmlns="http://www.w3.org/2000/svg" xmlns:xlink="http://www.w3.org/1999/xlink" x="0px" y="0px"
	 viewBox="0 0 98.6 98.6" style="enable-background:new 0 0 98.6 98.6;" xml:space="preserve">
<style type="text/css">
	.st0{fill:#46743C;}
	.st1{fill:#FFFFFF;}
</style>
<circle class="st0" cx="49.3" cy="49.3" r="47.5"/>
<g>
	<g>
		<path class="st1" d="M47.4,69.2h-3.2V48.4c0-1.5-1.3-2.8-2.8-2.8h-7.7c-1.5,0-2.8,1.3-2.8,2.8v20.9h-3.2c-0.7,0-1.4,0.4-1.7,1.1
			c-0.2,0.6-0.1,1.5,0.3,2l8.4,9.8c0.7,0.8,1.8,1.3,2.8,1.3c1.1,0,2.2-0.5,2.8-1.3l8.4-9.8c0.5-0.6,0.6-1.3,0.2-1.9
			C48.8,69.6,48.2,69.2,47.4,69.2z"/>
		<path class="st1" d="M63.8,46.9c-0.7-0.8-1.8-1.3-2.8-1.3c-1.1,0-2.2,0.5-2.8,1.3l-8.4,9.8c-0.5,0.6-0.6,1.3-0.2,1.9
			c0.3,0.6,1,1.1,1.7,1.1h3.2v20.9c0,1.5,1.3,2.8,2.8,2.8h7.7c1.5,0,2.8-1.3,2.8-2.8V59.8h3.2c0.7,0,1.4-0.4,1.7-1.1
			c0.3-0.6,0.2-1.5-0.2-1.9L63.8,46.9z"/>
		<path class="st1" d="M73.3,27.3c-0.6-0.1-1.1-0.3-1.5-0.8c-3.2-4.4-8.5-7.1-14-7.1c-0.3,0-0.7,0-1.1,0c-0.5,0-1-0.1-1.3-0.4
			c-3.4-2.6-7.5-4-11.8-4c-7.7,0-14.5,4.5-17.8,11.2c-0.3,0.6-0.9,1.1-1.5,1.1c-8.5,1.3-15.1,8.6-15.1,17.4
			c0,9.7,7.9,17.4,17.4,17.4h0.7V48.4c0-3.4,2.8-6.2,6.2-6.2h7.7c3.4,0,6.2,2.8,6.2,6.2v5.5l8-9.2c1.4-1.6,3.3-2.5,5.4-2.5
			s4.1,0.9,5.4,2.5l8.4,9.8c1.3,1.5,1.6,3.7,0.7,5.6c-0.3,0.8-0.9,1.4-1.5,1.9c8.6-1.1,15.3-8.4,15.3-17.4
			C89.3,35.6,82.2,28.1,73.3,27.3z"/>
	</g>
</g>
</svg>
