<?xml version="1.0" encoding="utf-8"?>
<!-- Generator: Adobe Illustrator 23.0.6, SVG Export Plug-In . SVG Version: 6.00 Build 0)  -->
<svg version="1.1" id="Capa_1" xmlns="http://www.w3.org/2000/svg" xmlns:xlink="http://www.w3.org/1999/xlink" x="0px" y="0px"
	 viewBox="0 0 900.5 900.5" style="enable-background:new 0 0 900.5 900.5;" xml:space="preserve">
<style type="text/css">
	.st0{fill:#147;}
</style>
<g>
	<path class="st0" d="M176.4,880.5c0,11,9,20,20,20h507.7c11,0,20-9,20-20v-648H176.4L176.4,880.5L176.4,880.5z M562.8,342.8h75v436
		h-75V342.8z M412.8,342.8h75v436h-75V342.8z M262.8,342.8h75v436h-75V342.8z"/>
	<path class="st0" d="M618.8,91.9V20c0-11-9-20-20-20H301.7c-11,0-20,9-20,20v71.9v12.5v12.5H141.9c-11,0-20,9-20,20v50.6
		c0,11,9,20,20,20h34.5h547.7h34.5c11,0,20-9,20-20v-50.6c0-11-9-20-20-20H618.8v-12.5V91.9z M543.8,112.8H356.7v-8.4V91.9V75h187.1
		v16.9v12.5V112.8z"/>
</g>
</svg>
