<?xml version="1.0" encoding="utf-8"?>
<!-- Generator: Adobe Illustrator 23.0.6, SVG Export Plug-In . SVG Version: 6.00 Build 0)  -->
<svg version="1.1" id="Capa_1" xmlns="http://www.w3.org/2000/svg" xmlns:xlink="http://www.w3.org/1999/xlink" x="0px" y="0px"
	 viewBox="0 0 26.8 26.8" style="enable-background:new 0 0 26.8 26.8;" xml:space="preserve">
<style type="text/css">
	.st0{fill:#46743C;}
</style>
<g>
	<path class="st0" d="M11.2,8.3c0.5-1.9,0.1-4.1-1.5-5.6c-1.5-1.5-3.6-2-5.5-1.5l3.2,3.2L6.6,7.7L3.4,8.5L0.2,5.3
		c-0.5,1.9,0,4,1.5,5.5c1.6,1.6,3.8,2,5.8,1.4l0,0l13.3,13.3c0.5,0.5,1.2,0.8,1.9,0.8c0.7,0,1.4-0.3,1.9-0.8c1.1-1,1.1-2.8,0-3.8
		L11.2,8.3z M22.9,25.1c-0.6,0-1-0.5-1-1c0-0.6,0.5-1,1-1c0.6,0,1,0.5,1,1C24,24.6,23.5,25.1,22.9,25.1z"/>
</g>
</svg>
