<?xml version="1.0" encoding="utf-8"?>
<!-- Generator: Adobe Illustrator 23.0.6, SVG Export Plug-In . SVG Version: 6.00 Build 0)  -->
<svg version="1.1" id="Capa_1" xmlns="http://www.w3.org/2000/svg" xmlns:xlink="http://www.w3.org/1999/xlink" x="0px" y="0px"
	 viewBox="0 0 548.3 548.3" style="enable-background:new 0 0 548.3 548.3;" xml:space="preserve">
<style type="text/css">
	.st0{fill:#46743C;}
</style>
<g>
	<path class="st0" d="M486.2,196.1H473v-63.5c0-0.4-0.1-0.8-0.1-1.2c0-2.5-0.8-5-2.6-7L364.7,3.7c0,0-0.1,0-0.1-0.1
		c-0.6-0.7-1.4-1.3-2.1-1.8c-0.2-0.2-0.5-0.3-0.7-0.4c-0.7-0.4-1.4-0.7-2.1-0.9c-0.2-0.1-0.4-0.1-0.6-0.2c-0.8-0.2-1.6-0.3-2.5-0.3
		H96.8C84.9,0,75.3,9.6,75.3,21.5v174.6H62.1c-17,0-30.7,13.8-30.7,30.7v159.8c0,17,13.8,30.7,30.7,30.7h13.2v109.4
		c0,11.9,9.6,21.5,21.5,21.5h354.8c11.9,0,21.5-9.6,21.5-21.5V417.4h13.2c17,0,30.7-13.8,30.7-30.7V226.9
		C516.9,209.9,503.2,196.1,486.2,196.1z M96.8,21.5h249.1v110c0,5.9,4.8,10.8,10.8,10.8h95v53.9H96.8V21.5z M323.3,223.6v160.5
		h-36.4V223.6H323.3z M146.3,253.6v-30h116.5v21L188,353.2v0.9h76v30H139.2v-19.5l76.5-110v-1H146.3z M451.5,521H96.8V417.4h354.8
		L451.5,521L451.5,521z M455.3,310.6c-12.4,11.7-30.7,16.9-52.2,16.9c-4.8,0-9-0.2-12.4-0.7v57.4h-36V225.8
		c11.2-1.9,26.9-3.3,49.1-3.3c22.4,0,38.3,4.3,49.1,12.9c10.2,8.1,17.1,21.4,17.1,37.2C470,288.2,464.8,301.5,455.3,310.6z"/>
	<path class="st0" d="M405.7,249.8c-7.4,0-12.4,0.7-15,1.4v47.4c3.1,0.7,6.9,1,12.2,1c19.3,0,31.2-9.8,31.2-26.2
		C434.1,258.7,423.8,249.8,405.7,249.8z"/>
</g>
</svg>
